<?xml version="1.0" encoding="iso-8859-1"?>
<!-- Uploaded to: SVG Repo, www.svgrepo.com, Generator: SVG Repo Mixer Tools -->
<svg version="1.1" id="Layer_1" xmlns="http://www.w3.org/2000/svg" xmlns:xlink="http://www.w3.org/1999/xlink" 
	 viewBox="0 0 451.277 451.277" xml:space="preserve">
<circle style="fill:#E05B49;" cx="225.638" cy="225.638" r="225.638"/>
<path style="opacity:0.1;enable-background:new    ;" d="M448.944,258.057L337.156,146.27c-1.602-1.895-3.88-3.102-6.432-3.102
	H197.777l-19.585-19.585c-0.049-0.054-0.102-0.101-0.152-0.152l-0.29-0.29l-0.003,0.052c-1.57-1.473-3.565-2.359-5.697-2.359
	h-51.497c-4.844,0-8.77,4.275-8.77,9.548v79.826h-6.635c-5.553,0-9.446,4.391-8.701,9.752l14.286,102.917
	c0.282,2.028,1.466,3.851,3.148,5.206l122.93,122.93C345.367,445.719,433.736,363.715,448.944,258.057z"/>
<path style="fill:#F6C358;" d="M330.724,143.168H194.355c-3.068,0-5.913-1.746-7.502-4.602l-7.301-13.129
	c-1.589-2.857-4.433-4.602-7.501-4.602h-51.497c-4.844,0-8.77,4.275-8.77,9.548v190.511c0,5.273,3.926,9.548,8.77,9.548h210.171
	c4.843,0,8.77-4.275,8.77-9.548V152.717C339.493,147.443,335.567,143.168,330.724,143.168z"/>
<rect x="125.491" y="166.39" style="fill:#EBF0F3;" width="202.803" height="64.225"/>
<rect x="125.491" y="175.36" style="fill:#FFFFFF;" width="202.803" height="64.225"/>
<path style="fill:#FCD462;" d="M346.129,210.209H105.148c-5.553,0-9.446,4.391-8.701,9.752l14.286,102.917
	c0.582,4.195,4.976,7.564,9.82,7.564h210.171c4.843,0,9.237-3.369,9.82-7.564l14.286-102.917
	C355.574,214.6,351.682,210.209,346.129,210.209z"/>
</svg>